<svg xmlns="http://www.w3.org/2000/svg" viewBox="0 0 86.17 78.23"><defs><style>.cls-1{fill:#fff;}</style></defs><g id="圖層_2" data-name="圖層 2"><g id="圖層_1-2" data-name="圖層 1"><path class="cls-1" d="M25.21,78.23A25.21,25.21,0,1,1,50.42,53,25.24,25.24,0,0,1,25.21,78.23Zm0-45.68A20.47,20.47,0,1,0,45.68,53,20.49,20.49,0,0,0,25.21,32.55Z"/><path class="cls-1" d="M25.21,50.42A25.21,25.21,0,1,1,50.42,25.21,25.24,25.24,0,0,1,25.21,50.42Zm0-45.68A20.47,20.47,0,1,0,45.68,25.21,20.49,20.49,0,0,0,25.21,4.74Z"/><path class="cls-1" d="M61,78.23A25.21,25.21,0,1,1,86.17,53,25.24,25.24,0,0,1,61,78.23Zm0-45.68A20.47,20.47,0,1,0,81.43,53,20.49,20.49,0,0,0,61,32.55Z"/></g></g></svg>