<svg xmlns="http://www.w3.org/2000/svg" viewBox="0 0 100.87 61.22"><defs></defs><g id="圖層_2" data-name="圖層 2"><g id="圖層_1-2" data-name="圖層 1"><path fill="currentColor" d="M.19,0H3.52V12.66h.23L21.9.55h5.62L7.24,14,28.56,28.32H23l-19.32-13H3.52v13H.19Z"/><path fill="currentColor" d="M62.36,2.79c1.79,1.88,2.21,4,2.21,11.62s-.42,9.78-2.21,11.66c-2.12,2.2-4.25,2.54-15.65,2.54s-13.54-.34-15.66-2.54c-1.79-1.88-2.2-4-2.2-11.62s.41-9.82,2.2-11.66C33.17.59,35.3.26,46.87.26,58.07.26,60.24.63,62.36,2.79ZM33.76,4.88c-1.17,1.2-1.46,3.2-1.46,9.57s.29,8.33,1.46,9.54c1.41,1.49,3.16,1.7,13,1.7s11.43-.18,12.84-1.64c1.17-1.2,1.56-3.27,1.56-9.6s-.29-8.37-1.46-9.57C58.36,3.46,56,3.17,46.87,3.17,37.3,3.17,35.09,3.46,33.76,4.88Z"/><path fill="currentColor" d="M100.87.55V19.41c0,3.08-.09,3.91-.42,4.91-1.29,3.5-4.16,4.29-15.94,4.29-9.62,0-12.78-.5-14.62-2.25a5.52,5.52,0,0,1-1.66-3.71,29,29,0,0,1-.08-3.24V.55h3.33V18.82a13.89,13.89,0,0,0,.16,3.5c.67,2.91,2.42,3.37,12.87,3.37,8.82,0,11.07-.33,12.19-1.87.75-1,.84-1.5.84-5V.55Z"/><path fill="currentColor" d="M0,33.45H3.33v7.37a3,3,0,0,0,3,3H26.37a3,3,0,0,0,3-3V33.45h3.33V61.22H29.35V51.88c0-1.69-.05-5.46-3.05-5.46H6.38c-2.94,0-3,3.77-3,5.46v9.34H0Z"/><path fill="currentColor" d="M37.34,33.45H65v2.79H40.67v7.48H64.11v2.62H40.67V58.43H65.2v2.79H37.34Z"/><path fill="currentColor" d="M69.52,33.45h3.33V61.22H69.52Z"/></g></g></svg>