<svg xmlns="http://www.w3.org/2000/svg" viewBox="0 0 437.89 70.43"><defs><style>.cls-1{fill:#fff;}</style></defs><g id="圖層_2" data-name="圖層 2"><g id="圖層_1-2" data-name="圖層 1"><path class="cls-1" d="M0,0H8.2V31.17h.56L53.45,1.35H67.28L17.37,34.45,69.85,69.71H56.11L8.55,37.63H8.2V69.71H0Z"/><path class="cls-1" d="M153.06,6.88c4.41,4.61,5.44,9.94,5.44,28.6s-1,24.09-5.44,28.7c-5.22,5.43-10.45,6.25-38.53,6.25S81.21,69.61,76,64.18c-4.41-4.61-5.44-9.94-5.44-28.6s1-24.19,5.44-28.7c5.22-5.43,10.45-6.25,39-6.25C142.51.63,147.84,1.55,153.06,6.88ZM82.65,12c-2.87,3-3.59,7.89-3.59,23.57s.72,20.5,3.59,23.47c3.48,3.69,7.79,4.21,31.88,4.21s28.14-.45,31.62-4c2.87-3,3.84-8.06,3.84-23.64S149.27,15,146.4,12c-3.17-3.49-8.92-4.21-31.46-4.21C91.36,7.8,85.93,8.52,82.65,12Z"/><path class="cls-1" d="M247.88,1.35V47.78c0,7.58-.21,9.63-1,12.09-3.18,8.61-10.25,10.56-39.26,10.56-23.67,0-31.46-1.23-36-5.53-2.46-2.36-3.69-5.13-4.1-9.13a67.29,67.29,0,0,1-.21-8V1.35h8.2v45c0,6.36,0,7,.41,8.61,1.64,7.18,6,8.31,31.67,8.31,21.73,0,27.27-.82,30-4.62,1.84-2.56,2.05-3.69,2.05-12.3v-45Z"/><path class="cls-1" d="M258.54,1.35h8.2V19.5a7.33,7.33,0,0,0,7.33,7.33h49.4a7.33,7.33,0,0,0,7.33-7.33V1.35H339V69.71h-8.2v-23c0-4.15-.12-13.43-7.51-13.43H274.24c-7.23,0-7.5,9.28-7.5,13.43v23h-8.2Z"/><path class="cls-1" d="M350.48,1.35h68.06V8.21H358.68V26.63h57.7v6.46h-57.7V62.85h60.37v6.86H350.48Z"/><path class="cls-1" d="M429.7,1.35h8.19V69.71H429.7Z"/></g></g></svg>