<svg xmlns="http://www.w3.org/2000/svg" viewBox="0 0 103.39 56.07"><defs><style>.cls-1{fill:#fff;}</style></defs><g id="圖層_2" data-name="圖層 2"><g id="圖層_1-2" data-name="圖層 1"><path class="cls-1" d="M102.32,25.54,78,1.24A3.66,3.66,0,0,0,75.39.17V7.86a2.28,2.28,0,0,1,1.68.68l18,18a2.31,2.31,0,0,1,0,3.26l-18,18a2.28,2.28,0,0,1-1.68.68v7.69A3.66,3.66,0,0,0,78,55l24.29-24.3A3.64,3.64,0,0,0,102.32,25.54Z"/><path class="cls-1" d="M26.32,47.53l-18-18a2.31,2.31,0,0,1,0-3.26l18-18a2.33,2.33,0,0,1,1.58-.67V0a3.62,3.62,0,0,0-2.53,1.07L1.07,25.36a3.65,3.65,0,0,0,0,5.17l24.3,24.3A3.62,3.62,0,0,0,27.9,55.9V48.21A2.34,2.34,0,0,1,26.32,47.53Z"/><polygon class="cls-1" points="39.98 51.62 33.41 51.62 62.05 4.39 68.62 4.39 39.98 51.62"/></g></g></svg>